<?xml version="1.0" standalone="no"?>
<!DOCTYPE svg PUBLIC "-//W3C//DTD SVG 20010904//EN"
 "http://www.w3.org/TR/2001/REC-SVG-20010904/DTD/svg10.dtd">
<svg version="1.0" xmlns="http://www.w3.org/2000/svg"
 width="512.000000pt" height="512.000000pt" viewBox="0 0 512.000000 512.000000"
 preserveAspectRatio="xMidYMid meet">

<g transform="translate(0.000000,512.000000) scale(0.100000,-0.100000)"
fill="#000000" stroke="none">
<path d="M1620 4441 c-418 -68 -764 -244 -1061 -540 -289 -290 -468 -642 -535
-1051 -24 -143 -24 -437 0 -580 67 -409 246 -761 535 -1051 306 -306 667 -484
1099 -545 177 -24 449 -15 620 20 465 98 864 349 1144 720 78 103 98 147 98
216 0 174 -176 281 -331 203 -43 -22 -66 -45 -113 -108 -33 -44 -107 -127
-165 -186 -464 -463 -1179 -549 -1746 -211 -338 201 -587 555 -672 952 -26
121 -26 439 0 560 105 494 454 900 916 1069 525 192 1107 65 1502 -328 58 -59
131 -141 162 -183 84 -115 163 -153 267 -128 140 34 219 188 161 315 -10 22
-47 78 -82 125 -276 366 -677 618 -1141 716 -170 36 -485 43 -658 15z"/>
<path d="M4111 3476 c-49 -18 -111 -74 -132 -120 -25 -55 -24 -139 1 -195 13
-29 76 -100 182 -207 l162 -164 -1372 0 c-1515 0 -1410 4 -1481 -63 -95 -90
-95 -244 0 -334 71 -67 -34 -63 1481 -63 l1372 0 -162 -164 c-178 -179 -202
-216 -202 -306 0 -165 170 -277 320 -209 67 30 782 744 816 814 29 62 31 124
3 185 -30 67 -744 782 -814 816 -55 26 -119 30 -174 10z"/>
</g>
</svg>
