<?xml version="1.0" standalone="no"?>
<!DOCTYPE svg PUBLIC "-//W3C//DTD SVG 20010904//EN"
 "http://www.w3.org/TR/2001/REC-SVG-20010904/DTD/svg10.dtd">
<svg version="1.0" xmlns="http://www.w3.org/2000/svg"
 width="512.000000pt" height="512.000000pt" viewBox="0 0 512.000000 512.000000"
 preserveAspectRatio="xMidYMid meet">

<g transform="translate(0.000000,512.000000) scale(0.100000,-0.100000)"
fill="#000000" stroke="none">
<path d="M3530 5080 c-370 -52 -676 -326 -776 -695 -15 -55 -19 -105 -19 -230
0 -184 16 -257 86 -404 23 -46 37 -86 32 -90 -4 -4 -43 -33 -85 -64 -154 -116
-333 -329 -418 -497 -40 -80 -81 -182 -75 -189 3 -3 73 -28 154 -57 l149 -51
27 65 c81 198 228 378 412 503 l72 49 53 -36 c80 -53 184 -100 268 -122 l75
-19 3 -422 2 -421 165 0 165 0 2 421 3 421 84 24 c90 26 196 76 267 125 l44
30 77 -53 c248 -166 428 -450 477 -754 14 -82 16 -165 14 -484 l-3 -385 -597
-3 -598 -2 0 -165 0 -165 603 0 c651 0 672 2 755 54 68 43 130 121 152 193 19
61 20 93 20 462 0 218 -5 435 -10 481 -32 256 -131 502 -286 711 -73 98 -221
245 -311 309 -35 24 -63 47 -63 51 0 3 18 45 40 92 67 142 83 219 84 392 1
126 -3 163 -22 233 -93 343 -366 606 -702 677 -91 19 -239 26 -320 15z m245
-335 c219 -46 409 -231 460 -447 64 -270 -70 -555 -315 -675 -100 -49 -162
-63 -272 -63 -158 0 -295 58 -414 175 -100 98 -153 206 -173 349 -34 243 100
497 322 606 135 66 256 83 392 55z"/>
<path d="M1185 2849 c-44 -10 -87 -45 -109 -87 -7 -15 -24 -71 -37 -126 -24
-101 -41 -125 -86 -128 -10 -1 -61 25 -113 57 -98 60 -142 72 -206 60 -31 -5
-66 -35 -207 -173 -93 -92 -175 -179 -183 -194 -8 -15 -14 -49 -14 -76 0 -43
8 -63 63 -155 62 -103 63 -106 50 -138 -13 -33 -16 -35 -131 -62 -129 -31
-163 -50 -193 -109 -19 -37 -20 -55 -17 -288 3 -234 4 -250 24 -277 35 -47 77
-68 185 -92 57 -13 109 -27 116 -33 6 -5 15 -22 18 -38 5 -24 -4 -47 -49 -123
-112 -186 -111 -188 122 -420 234 -232 236 -232 420 -125 101 60 122 65 160
40 7 -5 26 -60 42 -122 33 -129 48 -156 110 -187 42 -22 55 -23 275 -23 220 0
233 1 275 22 58 30 77 59 101 154 41 162 37 152 75 164 33 11 39 9 137 -49
182 -108 186 -107 419 121 235 230 238 239 122 427 -55 90 -60 111 -36 148 4
6 61 25 126 42 128 32 160 49 191 102 19 32 20 52 20 279 0 213 -2 249 -17
276 -32 59 -69 80 -193 109 -112 26 -117 28 -132 60 l-16 33 63 102 c66 109
80 155 61 212 -8 24 -67 90 -189 210 -228 227 -239 230 -422 119 -98 -59 -100
-60 -134 -46 -32 14 -34 18 -61 125 -30 122 -53 164 -105 194 -32 19 -53 21
-260 23 -124 1 -243 -3 -265 -8z m344 -422 c32 -121 59 -158 133 -182 29 -10
93 -36 142 -58 115 -51 143 -48 261 23 l87 52 53 -52 53 -52 -54 -91 c-66
-111 -70 -155 -25 -245 15 -31 40 -89 55 -128 38 -101 64 -122 188 -153 l103
-26 0 -74 0 -75 -90 -21 c-141 -33 -173 -58 -205 -160 -7 -22 -29 -71 -48
-110 -52 -104 -50 -138 17 -254 l53 -93 -52 -53 -52 -53 -91 54 c-106 63 -157
70 -230 33 -23 -12 -82 -37 -131 -55 -50 -18 -101 -44 -115 -58 -17 -17 -32
-56 -51 -128 l-27 -103 -78 0 -79 0 -23 94 c-34 134 -54 158 -170 197 -26 9
-77 30 -113 47 -106 49 -129 44 -307 -59 l-33 -19 -51 51 -52 52 52 89 c70
121 72 141 27 242 -20 44 -46 106 -57 138 -30 87 -70 122 -165 143 -27 6 -66
15 -86 21 l-38 10 0 73 0 74 92 22 c51 12 107 32 125 44 31 20 73 81 73 105 0
7 21 57 46 113 59 127 57 152 -15 269 l-51 84 54 54 54 54 87 -53 c116 -70
137 -72 255 -22 52 21 116 47 142 56 50 18 95 57 109 95 5 13 19 61 31 108
l21 84 75 -3 76 -3 25 -98z"/>
<path d="M1280 2004 c-203 -53 -367 -224 -416 -432 -21 -89 -14 -234 16 -319
45 -129 153 -256 270 -317 107 -56 164 -70 275 -71 125 0 217 28 322 97 85 58
140 118 188 209 47 89 65 166 65 274 0 167 -50 287 -169 406 -83 83 -179 137
-279 158 -73 15 -206 13 -272 -5z m257 -336 c148 -69 185 -271 72 -393 -104
-113 -273 -111 -372 5 -96 113 -68 297 57 374 77 48 159 52 243 14z"/>
<path d="M3050 1575 l0 -165 155 0 155 0 0 165 0 165 -155 0 -155 0 0 -165z"/>
</g>
</svg>
